<svg width="392" height="340" viewBox="0 0 392 340" fill="none" xmlns="http://www.w3.org/2000/svg">
<g filter="url(#filter0_d_154_14)">
<ellipse cx="206.5" cy="76.5" rx="78.5" ry="76.5" fill="#C79809"/>
</g>
<path d="M153.684 76.0781C153.684 77.0547 153.582 77.9297 153.379 78.7031C153.184 79.4688 152.91 80.1484 152.559 80.7422C152.215 81.3281 151.809 81.8281 151.34 82.2422C150.879 82.6484 150.379 82.9844 149.84 83.25C149.309 83.5078 148.754 83.6992 148.176 83.8242C147.605 83.9414 147.043 84 146.488 84H139.469V83.0273C140 82.918 140.395 82.8008 140.652 82.6758C140.918 82.543 141.051 82.4219 141.051 82.3125V70.5586L139.469 70.7812L139.305 69.5859C139.703 69.4922 140.18 69.4023 140.734 69.3164C141.289 69.2305 141.867 69.1562 142.469 69.0938C143.078 69.0234 143.688 68.9727 144.297 68.9414C144.914 68.9023 145.484 68.8828 146.008 68.8828C147.242 68.8828 148.336 69.0469 149.289 69.375C150.242 69.6953 151.043 70.1641 151.691 70.7812C152.348 71.3984 152.844 72.1523 153.18 73.043C153.516 73.9336 153.684 74.9453 153.684 76.0781ZM145.129 70.2188C145.004 70.2188 144.871 70.2227 144.73 70.2305C144.598 70.2305 144.465 70.2344 144.332 70.2422V81.7734C144.332 81.9062 144.34 82.0273 144.355 82.1367C144.371 82.2461 144.43 82.3398 144.531 82.418C144.641 82.4961 144.809 82.5586 145.035 82.6055C145.262 82.6445 145.582 82.6641 145.996 82.6641C146.418 82.6641 146.871 82.5508 147.355 82.3242C147.848 82.0977 148.301 81.7383 148.715 81.2461C149.129 80.7539 149.473 80.1211 149.746 79.3477C150.027 78.5742 150.168 77.6367 150.168 76.5352C150.168 74.4492 149.742 72.875 148.891 71.8125C148.039 70.75 146.785 70.2188 145.129 70.2188ZM167.944 80.2031C167.913 80.5391 167.878 80.9062 167.839 81.3047C167.8 81.6953 167.757 82.0742 167.71 82.4414C167.663 82.8008 167.616 83.1211 167.569 83.4023C167.53 83.6836 167.495 83.8828 167.464 84H156.062V83.0273C156.593 82.918 156.987 82.8008 157.245 82.6758C157.511 82.543 157.644 82.4219 157.644 82.3125V70.9336C157.644 70.8398 157.519 70.7227 157.269 70.582C157.026 70.4414 156.624 70.3164 156.062 70.207V69.2344H166.679L167.183 69.6445C167.167 69.8477 167.144 70.1133 167.112 70.4414C167.081 70.7695 167.042 71.1055 166.995 71.4492C166.948 71.793 166.897 72.1172 166.843 72.4219C166.796 72.7266 166.749 72.9531 166.702 73.1016H165.706C165.667 72.375 165.569 71.8047 165.413 71.3906C165.257 70.9688 165.034 70.7578 164.745 70.7578H160.925V75.3867H165.554L165.976 75.832C165.913 75.9414 165.835 76.0703 165.741 76.2188C165.655 76.3672 165.562 76.5195 165.46 76.6758C165.366 76.8242 165.269 76.9609 165.167 77.0859C165.073 77.2109 164.983 77.3047 164.897 77.3672C164.78 77.25 164.651 77.1523 164.511 77.0742C164.378 76.9961 164.222 76.9297 164.042 76.875C163.87 76.8203 163.663 76.7812 163.421 76.7578C163.187 76.7344 162.905 76.7227 162.577 76.7227H160.925V81.7266C160.925 81.8438 160.952 81.9492 161.007 82.043C161.062 82.1289 161.175 82.207 161.347 82.2773C161.519 82.3398 161.761 82.3906 162.073 82.4297C162.386 82.4609 162.8 82.4766 163.315 82.4766H164.358C164.718 82.4766 165.022 82.4297 165.272 82.3359C165.53 82.2344 165.757 82.0781 165.952 81.8672C166.147 81.6562 166.323 81.3867 166.48 81.0586C166.644 80.7305 166.808 80.3359 166.972 79.875L167.944 80.2031ZM184.08 76.0781C184.08 77.0547 183.979 77.9297 183.775 78.7031C183.58 79.4688 183.307 80.1484 182.955 80.7422C182.611 81.3281 182.205 81.8281 181.736 82.2422C181.275 82.6484 180.775 82.9844 180.236 83.25C179.705 83.5078 179.15 83.6992 178.572 83.8242C178.002 83.9414 177.44 84 176.885 84H169.865V83.0273C170.397 82.918 170.791 82.8008 171.049 82.6758C171.315 82.543 171.447 82.4219 171.447 82.3125V70.5586L169.865 70.7812L169.701 69.5859C170.1 69.4922 170.576 69.4023 171.131 69.3164C171.686 69.2305 172.264 69.1562 172.865 69.0938C173.475 69.0234 174.084 68.9727 174.693 68.9414C175.311 68.9023 175.881 68.8828 176.404 68.8828C177.639 68.8828 178.733 69.0469 179.686 69.375C180.639 69.6953 181.44 70.1641 182.088 70.7812C182.744 71.3984 183.24 72.1523 183.576 73.043C183.912 73.9336 184.08 74.9453 184.08 76.0781ZM175.525 70.2188C175.4 70.2188 175.268 70.2227 175.127 70.2305C174.994 70.2305 174.861 70.2344 174.729 70.2422V81.7734C174.729 81.9062 174.736 82.0273 174.752 82.1367C174.768 82.2461 174.826 82.3398 174.928 82.418C175.037 82.4961 175.205 82.5586 175.432 82.6055C175.658 82.6445 175.979 82.6641 176.393 82.6641C176.815 82.6641 177.268 82.5508 177.752 82.3242C178.244 82.0977 178.697 81.7383 179.111 81.2461C179.525 80.7539 179.869 80.1211 180.143 79.3477C180.424 78.5742 180.565 77.6367 180.565 76.5352C180.565 74.4492 180.139 72.875 179.287 71.8125C178.436 70.75 177.182 70.2188 175.525 70.2188ZM201.517 70.207C200.985 70.3164 200.587 70.4375 200.321 70.5703C200.064 70.7031 199.935 70.8242 199.935 70.9336V77.8594C199.935 78.8828 199.782 79.7969 199.478 80.6016C199.181 81.4062 198.767 82.0859 198.235 82.6406C197.712 83.1953 197.091 83.6211 196.372 83.918C195.653 84.207 194.872 84.3516 194.028 84.3516C193.224 84.3516 192.458 84.2383 191.732 84.0117C191.005 83.793 190.368 83.457 189.821 83.0039C189.275 82.543 188.841 81.9648 188.521 81.2695C188.2 80.5742 188.04 79.75 188.04 78.7969V70.9336C188.04 70.8398 187.915 70.7227 187.665 70.582C187.423 70.4414 187.021 70.3164 186.458 70.207V69.2344H192.903V70.207C192.372 70.3164 191.974 70.4375 191.708 70.5703C191.45 70.7031 191.321 70.8242 191.321 70.9336V77.9766C191.321 78.7266 191.38 79.3867 191.497 79.957C191.614 80.5273 191.806 81.0039 192.071 81.3867C192.345 81.7617 192.704 82.0469 193.15 82.2422C193.603 82.4375 194.165 82.5352 194.837 82.5352C195.392 82.5352 195.853 82.4141 196.22 82.1719C196.595 81.9297 196.892 81.6055 197.11 81.1992C197.329 80.7852 197.482 80.3125 197.568 79.7812C197.661 79.2422 197.708 78.6836 197.708 78.1055V70.9336C197.708 70.8398 197.583 70.7227 197.333 70.582C197.091 70.4414 196.689 70.3164 196.126 70.207V69.2344H201.517V70.207ZM203.59 84V83.0273C204.121 82.918 204.516 82.8008 204.774 82.6758C205.039 82.543 205.172 82.4219 205.172 82.3125V70.9336C205.172 70.8398 205.047 70.7227 204.797 70.582C204.555 70.4414 204.152 70.3164 203.59 70.207V69.2344H210.035V70.207C209.504 70.3164 209.106 70.4375 208.84 70.5703C208.582 70.7031 208.453 70.8242 208.453 70.9336V76.2188L212.66 71.25C212.84 71.0391 212.969 70.8711 213.047 70.7461C213.133 70.6211 213.16 70.5234 213.129 70.4531C213.098 70.3828 213 70.332 212.836 70.3008C212.68 70.2617 212.449 70.2305 212.145 70.207V69.2344H217.535V70.207C217.285 70.2383 217.074 70.2695 216.902 70.3008C216.738 70.332 216.59 70.375 216.457 70.4297C216.332 70.4766 216.219 70.543 216.117 70.6289C216.016 70.707 215.902 70.8086 215.777 70.9336L210.785 76.0664L216.422 81.9258C216.547 82.0586 216.672 82.1602 216.797 82.2305C216.922 82.293 217.055 82.3398 217.195 82.3711C217.336 82.4023 217.488 82.4141 217.652 82.4062C217.817 82.3984 218 82.3828 218.203 82.3594L218.285 83.332C218.059 83.4023 217.797 83.4883 217.5 83.5898C217.203 83.6836 216.902 83.7734 216.598 83.8594C216.301 83.9453 216.016 84.0156 215.742 84.0703C215.469 84.1328 215.238 84.1641 215.051 84.1641C214.824 84.1641 214.621 84.1289 214.442 84.0586C214.27 83.9883 214.106 83.8555 213.949 83.6602L208.453 76.7344V82.3125C208.453 82.4062 208.574 82.5234 208.817 82.6641C209.059 82.7969 209.465 82.918 210.035 83.0273V84H203.59ZM222.726 84V83.0273C223.085 82.957 223.382 82.8828 223.616 82.8047C223.851 82.7266 224.034 82.6523 224.167 82.582C224.3 82.5039 224.394 82.4336 224.448 82.3711C224.503 82.3008 224.53 82.2383 224.53 82.1836V70.7578H221.73C221.613 70.7578 221.499 70.8086 221.39 70.9102C221.28 71.0039 221.167 71.1562 221.05 71.3672C220.941 71.5703 220.816 71.8359 220.675 72.1641C220.542 72.4922 220.39 72.8828 220.218 73.3359L219.245 72.9961C219.261 72.7695 219.288 72.4844 219.327 72.1406C219.366 71.7969 219.409 71.4453 219.456 71.0859C219.511 70.7188 219.562 70.3711 219.609 70.043C219.663 69.707 219.71 69.4375 219.749 69.2344H232.523L232.991 69.6445C232.984 69.8477 232.964 70.1016 232.933 70.4062C232.902 70.7109 232.863 71.0312 232.816 71.3672C232.769 71.6953 232.718 72.0273 232.663 72.3633C232.616 72.6914 232.57 72.9766 232.523 73.2188H231.527C231.448 72.8594 231.386 72.5273 231.339 72.2227C231.292 71.918 231.238 71.6602 231.175 71.4492C231.113 71.2305 231.034 71.0625 230.941 70.9453C230.847 70.8203 230.718 70.7578 230.554 70.7578H227.812V82.1836C227.812 82.2305 227.839 82.2891 227.894 82.3594C227.948 82.4219 228.042 82.4922 228.175 82.5703C228.308 82.6484 228.491 82.7266 228.726 82.8047C228.96 82.8828 229.257 82.957 229.616 83.0273V84H222.726ZM235.065 84V83.0273C235.596 82.918 235.99 82.8008 236.248 82.6758C236.514 82.543 236.647 82.4219 236.647 82.3125V70.9336C236.647 70.8398 236.522 70.7227 236.272 70.582C236.03 70.4414 235.627 70.3164 235.065 70.207V69.2344H241.51V70.207C240.979 70.3164 240.58 70.4375 240.315 70.5703C240.057 70.7031 239.928 70.8242 239.928 70.9336V82.3125C239.928 82.4062 240.049 82.5234 240.291 82.6641C240.541 82.7969 240.948 82.918 241.51 83.0273V84H235.065ZM243.876 84V83.0273C244.408 82.918 244.802 82.8008 245.06 82.6758C245.325 82.543 245.458 82.4219 245.458 82.3125V70.9336C245.458 70.8398 245.333 70.7227 245.083 70.582C244.841 70.4414 244.439 70.3164 243.876 70.207V69.2344H254.611L255.091 69.6445C255.083 69.8477 255.064 70.1133 255.033 70.4414C255.001 70.7695 254.962 71.1055 254.915 71.4492C254.876 71.793 254.829 72.1172 254.775 72.4219C254.728 72.7266 254.681 72.9531 254.634 73.1016H253.615C253.591 72.375 253.497 71.8047 253.333 71.3906C253.177 70.9688 252.95 70.7578 252.654 70.7578H248.74V75.3867H253.005L253.462 75.832C253.392 75.9727 253.31 76.1211 253.216 76.2773C253.122 76.4258 253.025 76.5703 252.923 76.7109C252.822 76.8516 252.72 76.9805 252.618 77.0977C252.525 77.2148 252.439 77.3047 252.361 77.3672C252.243 77.25 252.118 77.1523 251.986 77.0742C251.853 76.9961 251.697 76.9297 251.517 76.875C251.345 76.8203 251.138 76.7812 250.896 76.7578C250.661 76.7344 250.38 76.7227 250.052 76.7227H248.74V82.3125C248.74 82.3594 248.767 82.4102 248.822 82.4648C248.884 82.5195 248.986 82.5781 249.126 82.6406C249.275 82.6953 249.474 82.7578 249.724 82.8281C249.974 82.8906 250.29 82.957 250.673 83.0273V84H243.876Z" fill="white"/>
<g filter="url(#filter1_d_154_14)">
<ellipse cx="91.5" cy="252.5" rx="78.5" ry="76.5" fill="#FF6A3D"/>
</g>
<path d="M35.7031 260V259.027C36.2344 258.918 36.6289 258.801 36.8867 258.676C37.1523 258.543 37.2852 258.422 37.2852 258.312V246.934C37.2852 246.84 37.1602 246.723 36.9102 246.582C36.668 246.441 36.2656 246.316 35.7031 246.207V245.234H42.1484V246.207C41.6172 246.316 41.2188 246.438 40.9531 246.57C40.6953 246.703 40.5664 246.824 40.5664 246.934V258.312C40.5664 258.406 40.6875 258.523 40.9297 258.664C41.1797 258.797 41.5859 258.918 42.1484 259.027V260H35.7031ZM44.5147 260V259.027C45.085 258.957 45.4913 258.848 45.7334 258.699C45.9756 258.551 46.0967 258.422 46.0967 258.312V247.086C45.8467 246.852 45.585 246.656 45.3116 246.5C45.0459 246.344 44.7803 246.246 44.5147 246.207V245.234H48.0538C48.1709 245.234 48.2647 245.246 48.335 245.27C48.4131 245.285 48.4913 245.324 48.5694 245.387C48.6475 245.449 48.7295 245.543 48.8155 245.668C48.9092 245.785 49.0303 245.945 49.1788 246.148L56.1748 255.863V246.934C56.1748 246.887 56.1514 246.832 56.1045 246.77C56.0577 246.699 55.9717 246.633 55.8467 246.57C55.7295 246.5 55.5694 246.434 55.3663 246.371C55.1631 246.309 54.9053 246.254 54.5928 246.207V245.234H59.6319V246.207C59.0694 246.285 58.6631 246.398 58.4131 246.547C58.1709 246.695 58.0498 246.824 58.0498 246.934V260.352C57.6202 260.32 57.2295 260.258 56.878 260.164C56.5342 260.078 56.2256 259.973 55.9522 259.848C55.6866 259.723 55.4561 259.582 55.2608 259.426C55.0655 259.27 54.9053 259.105 54.7803 258.934L47.9717 249.512V258.312C47.9717 258.359 47.9952 258.418 48.042 258.488C48.0967 258.551 48.1866 258.617 48.3116 258.688C48.4366 258.75 48.5967 258.812 48.792 258.875C48.9952 258.938 49.2491 258.988 49.5538 259.027V260H44.5147ZM75.7442 252.078C75.7442 253.055 75.6427 253.93 75.4395 254.703C75.2442 255.469 74.9708 256.148 74.6192 256.742C74.2755 257.328 73.8692 257.828 73.4005 258.242C72.9395 258.648 72.4395 258.984 71.9005 259.25C71.3692 259.508 70.8145 259.699 70.2364 259.824C69.6661 259.941 69.1036 260 68.5489 260H61.5294V259.027C62.0606 258.918 62.4552 258.801 62.713 258.676C62.9786 258.543 63.1114 258.422 63.1114 258.312V246.559L61.5294 246.781L61.3653 245.586C61.7638 245.492 62.2403 245.402 62.795 245.316C63.3497 245.23 63.9278 245.156 64.5294 245.094C65.1388 245.023 65.7481 244.973 66.3575 244.941C66.9747 244.902 67.545 244.883 68.0684 244.883C69.3028 244.883 70.3966 245.047 71.3497 245.375C72.3028 245.695 73.1036 246.164 73.752 246.781C74.4083 247.398 74.9044 248.152 75.2403 249.043C75.5763 249.934 75.7442 250.945 75.7442 252.078ZM67.1895 246.219C67.0645 246.219 66.9317 246.223 66.7911 246.23C66.6583 246.23 66.5255 246.234 66.3927 246.242V257.773C66.3927 257.906 66.4005 258.027 66.4161 258.137C66.4317 258.246 66.4903 258.34 66.5919 258.418C66.7013 258.496 66.8692 258.559 67.0958 258.605C67.3223 258.645 67.6427 258.664 68.0567 258.664C68.4786 258.664 68.9317 258.551 69.4161 258.324C69.9083 258.098 70.3614 257.738 70.7755 257.246C71.1895 256.754 71.5333 256.121 71.8067 255.348C72.088 254.574 72.2286 253.637 72.2286 252.535C72.2286 250.449 71.8028 248.875 70.9513 247.812C70.0997 246.75 68.8458 246.219 67.1895 246.219ZM93.1808 246.207C92.6495 246.316 92.2511 246.438 91.9855 246.57C91.7277 246.703 91.5988 246.824 91.5988 246.934V253.859C91.5988 254.883 91.4464 255.797 91.1417 256.602C90.8448 257.406 90.4308 258.086 89.8995 258.641C89.3761 259.195 88.755 259.621 88.0363 259.918C87.3175 260.207 86.5363 260.352 85.6925 260.352C84.8878 260.352 84.1222 260.238 83.3956 260.012C82.6691 259.793 82.0323 259.457 81.4855 259.004C80.9386 258.543 80.505 257.965 80.1847 257.27C79.8644 256.574 79.7042 255.75 79.7042 254.797V246.934C79.7042 246.84 79.5792 246.723 79.3292 246.582C79.087 246.441 78.6847 246.316 78.1222 246.207V245.234H84.5675V246.207C84.0363 246.316 83.6378 246.438 83.3722 246.57C83.1144 246.703 82.9855 246.824 82.9855 246.934V253.977C82.9855 254.727 83.0441 255.387 83.1613 255.957C83.2784 256.527 83.4698 257.004 83.7355 257.387C84.0089 257.762 84.3683 258.047 84.8136 258.242C85.2667 258.438 85.8292 258.535 86.5011 258.535C87.0558 258.535 87.5167 258.414 87.8839 258.172C88.2589 257.93 88.5558 257.605 88.7745 257.199C88.9933 256.785 89.1456 256.312 89.2316 255.781C89.3253 255.242 89.3722 254.684 89.3722 254.105V246.934C89.3722 246.84 89.2472 246.723 88.9972 246.582C88.755 246.441 88.3527 246.316 87.7902 246.207V245.234H93.1808V246.207ZM95.2541 260V259.027C95.7853 258.918 96.1798 258.801 96.4377 258.676C96.7033 258.543 96.8361 258.422 96.8361 258.312V246.934C96.8361 246.84 96.7111 246.723 96.4611 246.582C96.2189 246.441 95.8166 246.316 95.2541 246.207V245.234H101.699V246.207C101.168 246.316 100.77 246.438 100.504 246.57C100.246 246.703 100.117 246.824 100.117 246.934V252.219L104.324 247.25C104.504 247.039 104.633 246.871 104.711 246.746C104.797 246.621 104.824 246.523 104.793 246.453C104.762 246.383 104.664 246.332 104.5 246.301C104.344 246.262 104.113 246.23 103.809 246.207V245.234H109.199V246.207C108.949 246.238 108.738 246.27 108.567 246.301C108.403 246.332 108.254 246.375 108.121 246.43C107.996 246.477 107.883 246.543 107.781 246.629C107.68 246.707 107.567 246.809 107.442 246.934L102.449 252.066L108.086 257.926C108.211 258.059 108.336 258.16 108.461 258.23C108.586 258.293 108.719 258.34 108.86 258.371C109 258.402 109.153 258.414 109.317 258.406C109.481 258.398 109.664 258.383 109.867 258.359L109.949 259.332C109.723 259.402 109.461 259.488 109.164 259.59C108.867 259.684 108.567 259.773 108.262 259.859C107.965 259.945 107.68 260.016 107.406 260.07C107.133 260.133 106.903 260.164 106.715 260.164C106.488 260.164 106.285 260.129 106.106 260.059C105.934 259.988 105.77 259.855 105.613 259.66L100.117 252.734V258.312C100.117 258.406 100.238 258.523 100.481 258.664C100.723 258.797 101.129 258.918 101.699 259.027V260H95.2541ZM114.39 260V259.027C114.749 258.957 115.046 258.883 115.28 258.805C115.515 258.727 115.698 258.652 115.831 258.582C115.964 258.504 116.058 258.434 116.113 258.371C116.167 258.301 116.195 258.238 116.195 258.184V246.758H113.394C113.277 246.758 113.163 246.809 113.054 246.91C112.945 247.004 112.831 247.156 112.714 247.367C112.605 247.57 112.48 247.836 112.339 248.164C112.206 248.492 112.054 248.883 111.882 249.336L110.909 248.996C110.925 248.77 110.952 248.484 110.991 248.141C111.03 247.797 111.073 247.445 111.12 247.086C111.175 246.719 111.226 246.371 111.273 246.043C111.327 245.707 111.374 245.438 111.413 245.234H124.187L124.655 245.645C124.648 245.848 124.628 246.102 124.597 246.406C124.566 246.711 124.527 247.031 124.48 247.367C124.433 247.695 124.382 248.027 124.327 248.363C124.28 248.691 124.234 248.977 124.187 249.219H123.191C123.113 248.859 123.05 248.527 123.003 248.223C122.956 247.918 122.902 247.66 122.839 247.449C122.777 247.23 122.698 247.062 122.605 246.945C122.511 246.82 122.382 246.758 122.218 246.758H119.476V258.184C119.476 258.23 119.503 258.289 119.558 258.359C119.613 258.422 119.706 258.492 119.839 258.57C119.972 258.648 120.155 258.727 120.39 258.805C120.624 258.883 120.921 258.957 121.28 259.027V260H114.39ZM126.729 260V259.027C127.26 258.918 127.655 258.801 127.912 258.676C128.178 258.543 128.311 258.422 128.311 258.312V246.934C128.311 246.84 128.186 246.723 127.936 246.582C127.694 246.441 127.291 246.316 126.729 246.207V245.234H133.174V246.207C132.643 246.316 132.244 246.438 131.979 246.57C131.721 246.703 131.592 246.824 131.592 246.934V258.312C131.592 258.406 131.713 258.523 131.955 258.664C132.205 258.797 132.612 258.918 133.174 259.027V260H126.729ZM135.54 260V259.027C136.072 258.918 136.466 258.801 136.724 258.676C136.99 258.543 137.122 258.422 137.122 258.312V246.934C137.122 246.84 136.997 246.723 136.747 246.582C136.505 246.441 136.103 246.316 135.54 246.207V245.234H146.275L146.755 245.645C146.747 245.848 146.728 246.113 146.697 246.441C146.665 246.77 146.626 247.105 146.579 247.449C146.54 247.793 146.493 248.117 146.439 248.422C146.392 248.727 146.345 248.953 146.298 249.102H145.279C145.255 248.375 145.161 247.805 144.997 247.391C144.841 246.969 144.615 246.758 144.318 246.758H140.404V251.387H144.669L145.126 251.832C145.056 251.973 144.974 252.121 144.88 252.277C144.786 252.426 144.689 252.57 144.587 252.711C144.486 252.852 144.384 252.98 144.283 253.098C144.189 253.215 144.103 253.305 144.025 253.367C143.908 253.25 143.783 253.152 143.65 253.074C143.517 252.996 143.361 252.93 143.181 252.875C143.009 252.82 142.802 252.781 142.56 252.758C142.325 252.734 142.044 252.723 141.716 252.723H140.404V258.312C140.404 258.359 140.431 258.41 140.486 258.465C140.548 258.52 140.65 258.578 140.79 258.641C140.939 258.695 141.138 258.758 141.388 258.828C141.638 258.891 141.954 258.957 142.337 259.027V260H135.54Z" fill="white"/>
<g filter="url(#filter2_d_154_14)">
<ellipse cx="313.5" cy="252.5" rx="78.5" ry="76.5" fill="#5B9BD5"/>
</g>
<path d="M265.707 253.496L263.82 248.246L262.145 253.496H265.707ZM261.641 255.02L260.574 258.23C260.496 258.473 260.586 258.648 260.844 258.758C261.109 258.867 261.562 258.957 262.203 259.027V260H257V259.027C257.531 258.934 257.934 258.836 258.207 258.734C258.48 258.633 258.656 258.465 258.734 258.23L262.742 245.973C262.953 245.793 263.184 245.633 263.434 245.492C263.691 245.344 263.953 245.211 264.219 245.094C264.484 244.977 264.746 244.875 265.004 244.789C265.27 244.703 265.52 244.629 265.754 244.566L270.676 258.23C270.715 258.34 270.762 258.438 270.816 258.523C270.879 258.609 270.961 258.684 271.062 258.746C271.172 258.809 271.309 258.863 271.473 258.91C271.637 258.957 271.844 258.996 272.094 259.027V260H265.977V259.027C266.578 258.996 266.984 258.922 267.195 258.805C267.414 258.68 267.48 258.488 267.395 258.23L266.246 255.02H261.641ZM278.972 246.219C278.917 246.219 278.862 246.223 278.808 246.23C278.761 246.23 278.706 246.23 278.644 246.23V251.27H278.808C279.55 251.27 280.151 251.195 280.612 251.047C281.073 250.898 281.429 250.703 281.679 250.461C281.937 250.211 282.108 249.926 282.194 249.605C282.288 249.285 282.335 248.957 282.335 248.621C282.335 248.23 282.28 247.887 282.171 247.59C282.062 247.293 281.874 247.043 281.608 246.84C281.351 246.637 281.007 246.484 280.577 246.383C280.147 246.273 279.612 246.219 278.972 246.219ZM280.108 252.559C279.757 252.559 279.472 252.574 279.253 252.605C279.042 252.637 278.839 252.672 278.644 252.711V258.43C278.644 258.477 278.655 258.527 278.679 258.582C278.897 258.676 279.124 258.742 279.358 258.781C279.593 258.812 279.87 258.828 280.19 258.828C281.315 258.828 282.151 258.578 282.698 258.078C283.253 257.57 283.53 256.875 283.53 255.992C283.53 255.562 283.48 255.145 283.378 254.738C283.276 254.324 283.097 253.957 282.839 253.637C282.581 253.309 282.23 253.047 281.784 252.852C281.347 252.656 280.788 252.559 280.108 252.559ZM286.976 255.828C286.976 256.492 286.835 257.094 286.554 257.633C286.272 258.164 285.862 258.617 285.323 258.992C284.784 259.367 284.124 259.656 283.343 259.859C282.562 260.062 281.675 260.164 280.683 260.164C280.511 260.164 280.292 260.16 280.026 260.152C279.769 260.152 279.483 260.148 279.171 260.141C278.866 260.133 278.542 260.125 278.198 260.117C277.862 260.109 277.53 260.098 277.202 260.082C276.429 260.059 275.612 260.031 274.753 260H273.78V259.027C274.312 258.918 274.706 258.801 274.964 258.676C275.23 258.543 275.362 258.422 275.362 258.312V246.453C275.058 246.484 274.769 246.52 274.495 246.559C274.23 246.59 273.991 246.625 273.78 246.664L273.616 245.586C273.976 245.5 274.405 245.418 274.905 245.34C275.413 245.254 275.944 245.18 276.499 245.117C277.054 245.047 277.612 244.992 278.175 244.953C278.737 244.906 279.261 244.883 279.745 244.883C280.675 244.883 281.507 244.957 282.241 245.105C282.976 245.246 283.597 245.453 284.105 245.727C284.612 246 284.999 246.332 285.265 246.723C285.538 247.113 285.675 247.555 285.675 248.047C285.675 248.891 285.44 249.613 284.972 250.215C284.511 250.816 283.808 251.254 282.862 251.527C283.48 251.621 284.038 251.797 284.538 252.055C285.046 252.312 285.48 252.633 285.839 253.016C286.198 253.391 286.476 253.82 286.671 254.305C286.874 254.781 286.976 255.289 286.976 255.828ZM303.791 252.078C303.791 253.055 303.69 253.93 303.486 254.703C303.291 255.469 303.018 256.148 302.666 256.742C302.322 257.328 301.916 257.828 301.447 258.242C300.986 258.648 300.486 258.984 299.947 259.25C299.416 259.508 298.861 259.699 298.283 259.824C297.713 259.941 297.15 260 296.596 260H289.576V259.027C290.107 258.918 290.502 258.801 290.76 258.676C291.025 258.543 291.158 258.422 291.158 258.312V246.559L289.576 246.781L289.412 245.586C289.811 245.492 290.287 245.402 290.842 245.316C291.397 245.23 291.975 245.156 292.576 245.094C293.186 245.023 293.795 244.973 294.404 244.941C295.022 244.902 295.592 244.883 296.115 244.883C297.35 244.883 298.443 245.047 299.397 245.375C300.35 245.695 301.15 246.164 301.799 246.781C302.455 247.398 302.951 248.152 303.287 249.043C303.623 249.934 303.791 250.945 303.791 252.078ZM295.236 246.219C295.111 246.219 294.979 246.223 294.838 246.23C294.705 246.23 294.572 246.234 294.44 246.242V257.773C294.44 257.906 294.447 258.027 294.463 258.137C294.479 258.246 294.537 258.34 294.639 258.418C294.748 258.496 294.916 258.559 295.143 258.605C295.369 258.645 295.69 258.664 296.104 258.664C296.525 258.664 296.979 258.551 297.463 258.324C297.955 258.098 298.408 257.738 298.822 257.246C299.236 256.754 299.58 256.121 299.854 255.348C300.135 254.574 300.275 253.637 300.275 252.535C300.275 250.449 299.85 248.875 298.998 247.812C298.147 246.75 296.893 246.219 295.236 246.219ZM321.228 246.207C320.696 246.316 320.298 246.438 320.032 246.57C319.775 246.703 319.646 246.824 319.646 246.934V253.859C319.646 254.883 319.493 255.797 319.189 256.602C318.892 257.406 318.478 258.086 317.946 258.641C317.423 259.195 316.802 259.621 316.083 259.918C315.364 260.207 314.583 260.352 313.739 260.352C312.935 260.352 312.169 260.238 311.443 260.012C310.716 259.793 310.079 259.457 309.532 259.004C308.985 258.543 308.552 257.965 308.232 257.27C307.911 256.574 307.751 255.75 307.751 254.797V246.934C307.751 246.84 307.626 246.723 307.376 246.582C307.134 246.441 306.732 246.316 306.169 246.207V245.234H312.614V246.207C312.083 246.316 311.685 246.438 311.419 246.57C311.161 246.703 311.032 246.824 311.032 246.934V253.977C311.032 254.727 311.091 255.387 311.208 255.957C311.325 256.527 311.517 257.004 311.782 257.387C312.056 257.762 312.415 258.047 312.86 258.242C313.314 258.438 313.876 258.535 314.548 258.535C315.103 258.535 315.564 258.414 315.931 258.172C316.306 257.93 316.603 257.605 316.821 257.199C317.04 256.785 317.193 256.312 317.278 255.781C317.372 255.242 317.419 254.684 317.419 254.105V246.934C317.419 246.84 317.294 246.723 317.044 246.582C316.802 246.441 316.4 246.316 315.837 246.207V245.234H321.228V246.207ZM323.301 260V259.027C323.832 258.918 324.227 258.801 324.485 258.676C324.75 258.543 324.883 258.422 324.883 258.312V246.934C324.883 246.84 324.758 246.723 324.508 246.582C324.266 246.441 323.863 246.316 323.301 246.207V245.234H329.746V246.207C329.215 246.316 328.817 246.438 328.551 246.57C328.293 246.703 328.164 246.824 328.164 246.934V252.219L332.371 247.25C332.551 247.039 332.68 246.871 332.758 246.746C332.844 246.621 332.871 246.523 332.84 246.453C332.809 246.383 332.711 246.332 332.547 246.301C332.391 246.262 332.16 246.23 331.856 246.207V245.234H337.246V246.207C336.996 246.238 336.785 246.27 336.613 246.301C336.449 246.332 336.301 246.375 336.168 246.43C336.043 246.477 335.93 246.543 335.828 246.629C335.727 246.707 335.613 246.809 335.488 246.934L330.496 252.066L336.133 257.926C336.258 258.059 336.383 258.16 336.508 258.23C336.633 258.293 336.766 258.34 336.906 258.371C337.047 258.402 337.199 258.414 337.363 258.406C337.527 258.398 337.711 258.383 337.914 258.359L337.996 259.332C337.77 259.402 337.508 259.488 337.211 259.59C336.914 259.684 336.613 259.773 336.309 259.859C336.012 259.945 335.727 260.016 335.453 260.07C335.18 260.133 334.949 260.164 334.762 260.164C334.535 260.164 334.332 260.129 334.152 260.059C333.981 259.988 333.817 259.855 333.66 259.66L328.164 252.734V258.312C328.164 258.406 328.285 258.523 328.527 258.664C328.77 258.797 329.176 258.918 329.746 259.027V260H323.301ZM342.437 260V259.027C342.796 258.957 343.093 258.883 343.327 258.805C343.562 258.727 343.745 258.652 343.878 258.582C344.011 258.504 344.105 258.434 344.159 258.371C344.214 258.301 344.241 258.238 344.241 258.184V246.758H341.441C341.323 246.758 341.21 246.809 341.101 246.91C340.991 247.004 340.878 247.156 340.761 247.367C340.652 247.57 340.527 247.836 340.386 248.164C340.253 248.492 340.101 248.883 339.929 249.336L338.956 248.996C338.972 248.77 338.999 248.484 339.038 248.141C339.077 247.797 339.12 247.445 339.167 247.086C339.222 246.719 339.273 246.371 339.32 246.043C339.374 245.707 339.421 245.438 339.46 245.234H352.234L352.702 245.645C352.695 245.848 352.675 246.102 352.644 246.406C352.613 246.711 352.573 247.031 352.527 247.367C352.48 247.695 352.429 248.027 352.374 248.363C352.327 248.691 352.28 248.977 352.234 249.219H351.238C351.159 248.859 351.097 248.527 351.05 248.223C351.003 247.918 350.948 247.66 350.886 247.449C350.823 247.23 350.745 247.062 350.652 246.945C350.558 246.82 350.429 246.758 350.265 246.758H347.523V258.184C347.523 258.23 347.55 258.289 347.605 258.359C347.659 258.422 347.753 258.492 347.886 258.57C348.019 258.648 348.202 258.727 348.437 258.805C348.671 258.883 348.968 258.957 349.327 259.027V260H342.437ZM354.776 260V259.027C355.307 258.918 355.701 258.801 355.959 258.676C356.225 258.543 356.358 258.422 356.358 258.312V246.934C356.358 246.84 356.233 246.723 355.983 246.582C355.74 246.441 355.338 246.316 354.776 246.207V245.234H361.221V246.207C360.69 246.316 360.291 246.438 360.026 246.57C359.768 246.703 359.639 246.824 359.639 246.934V258.312C359.639 258.406 359.76 258.523 360.002 258.664C360.252 258.797 360.658 258.918 361.221 259.027V260H354.776ZM363.587 260V259.027C364.118 258.918 364.513 258.801 364.771 258.676C365.036 258.543 365.169 258.422 365.169 258.312V246.934C365.169 246.84 365.044 246.723 364.794 246.582C364.552 246.441 364.15 246.316 363.587 246.207V245.234H374.322L374.802 245.645C374.794 245.848 374.775 246.113 374.743 246.441C374.712 246.77 374.673 247.105 374.626 247.449C374.587 247.793 374.54 248.117 374.486 248.422C374.439 248.727 374.392 248.953 374.345 249.102H373.325C373.302 248.375 373.208 247.805 373.044 247.391C372.888 246.969 372.661 246.758 372.365 246.758H368.45V251.387H372.716L373.173 251.832C373.103 251.973 373.021 252.121 372.927 252.277C372.833 252.426 372.736 252.57 372.634 252.711C372.533 252.852 372.431 252.98 372.329 253.098C372.236 253.215 372.15 253.305 372.072 253.367C371.954 253.25 371.829 253.152 371.697 253.074C371.564 252.996 371.408 252.93 371.228 252.875C371.056 252.82 370.849 252.781 370.607 252.758C370.372 252.734 370.091 252.723 369.763 252.723H368.45V258.312C368.45 258.359 368.478 258.41 368.533 258.465C368.595 258.52 368.697 258.578 368.837 258.641C368.986 258.695 369.185 258.758 369.435 258.828C369.685 258.891 370.001 258.957 370.384 259.027V260H363.587Z" fill="white"/>
<defs>
<filter id="filter0_d_154_14" x="115" y="0" width="170" height="164" filterUnits="userSpaceOnUse" color-interpolation-filters="sRGB">
<feFlood flood-opacity="0" result="BackgroundImageFix"/>
<feColorMatrix in="SourceAlpha" type="matrix" values="0 0 0 0 0 0 0 0 0 0 0 0 0 0 0 0 0 0 127 0" result="hardAlpha"/>
<feOffset dx="-8" dy="6"/>
<feGaussianBlur stdDeviation="2.5"/>
<feComposite in2="hardAlpha" operator="out"/>
<feColorMatrix type="matrix" values="0 0 0 0 0 0 0 0 0 0 0 0 0 0 0 0 0 0 0.25 0"/>
<feBlend mode="normal" in2="BackgroundImageFix" result="effect1_dropShadow_154_14"/>
<feBlend mode="normal" in="SourceGraphic" in2="effect1_dropShadow_154_14" result="shape"/>
</filter>
<filter id="filter1_d_154_14" x="0" y="176" width="170" height="164" filterUnits="userSpaceOnUse" color-interpolation-filters="sRGB">
<feFlood flood-opacity="0" result="BackgroundImageFix"/>
<feColorMatrix in="SourceAlpha" type="matrix" values="0 0 0 0 0 0 0 0 0 0 0 0 0 0 0 0 0 0 127 0" result="hardAlpha"/>
<feOffset dx="-8" dy="6"/>
<feGaussianBlur stdDeviation="2.5"/>
<feComposite in2="hardAlpha" operator="out"/>
<feColorMatrix type="matrix" values="0 0 0 0 0 0 0 0 0 0 0 0 0 0 0 0 0 0 0.25 0"/>
<feBlend mode="normal" in2="BackgroundImageFix" result="effect1_dropShadow_154_14"/>
<feBlend mode="normal" in="SourceGraphic" in2="effect1_dropShadow_154_14" result="shape"/>
</filter>
<filter id="filter2_d_154_14" x="222" y="176" width="170" height="164" filterUnits="userSpaceOnUse" color-interpolation-filters="sRGB">
<feFlood flood-opacity="0" result="BackgroundImageFix"/>
<feColorMatrix in="SourceAlpha" type="matrix" values="0 0 0 0 0 0 0 0 0 0 0 0 0 0 0 0 0 0 127 0" result="hardAlpha"/>
<feOffset dx="-8" dy="6"/>
<feGaussianBlur stdDeviation="2.5"/>
<feComposite in2="hardAlpha" operator="out"/>
<feColorMatrix type="matrix" values="0 0 0 0 0 0 0 0 0 0 0 0 0 0 0 0 0 0 0.25 0"/>
<feBlend mode="normal" in2="BackgroundImageFix" result="effect1_dropShadow_154_14"/>
<feBlend mode="normal" in="SourceGraphic" in2="effect1_dropShadow_154_14" result="shape"/>
</filter>
</defs>
</svg>
